<?xml version="1.0" standalone="no"?><!DOCTYPE svg PUBLIC "-//W3C//DTD SVG 1.1//EN" "http://www.w3.org/Graphics/SVG/1.1/DTD/svg11.dtd"><svg class="icon" width="200px" height="200.00px" viewBox="0 0 1024 1024" version="1.1" xmlns="http://www.w3.org/2000/svg"><path d="M553.4208 122.2144a388.2496 388.2496 0 0 0-387.84 387.84c0 11.1104 0.5632 22.1696 1.4848 33.1776L122.88 511.5904a35.84 35.84 0 0 0-41.6768 58.2656l120.5248 86.272a36.1984 36.1984 0 0 0 20.8896 6.656 35.4816 35.4816 0 0 0 29.44-15.36l78.4384-113.5104A35.84 35.84 0 1 0 271.36 493.056l-32.7168 47.3088c-0.9728-10.24-1.4848-20.1728-1.4848-30.3104A316.2112 316.2112 0 1 1 328.2432 732.16a35.84 35.84 0 0 0-51.2 50.2784 387.84 387.84 0 1 0 276.48-660.0192z" fill="#3A3937" /><path d="M543.1808 285.6448a35.84 35.84 0 0 0-35.84 35.84v192.1536a35.84 35.84 0 0 0 15.36 29.3376l136.0896 95.4368a35.4816 35.4816 0 0 0 20.48 6.5024 35.84 35.84 0 0 0 20.48-65.1776l-120.7296-84.736V321.4848a35.84 35.84 0 0 0-35.84-35.84z" fill="#3A3937" /></svg>